%TF.GenerationSoftware,KiCad,Pcbnew,7.0.1*%
%TF.CreationDate,2023-05-12T08:34:51-04:00*%
%TF.ProjectId,digital_compass,64696769-7461-46c5-9f63-6f6d70617373,rev?*%
%TF.SameCoordinates,Original*%
%TF.FileFunction,Drillmap*%
%TF.FilePolarity,Positive*%
%FSLAX45Y45*%
G04 Gerber Fmt 4.5, Leading zero omitted, Abs format (unit mm)*
G04 Created by KiCad (PCBNEW 7.0.1) date 2023-05-12 08:34:51*
%MOMM*%
%LPD*%
G01*
G04 APERTURE LIST*
%ADD10C,0.100000*%
%ADD11C,0.200000*%
%ADD12C,0.260000*%
G04 APERTURE END LIST*
D10*
X13300000Y-10000000D02*
G75*
G03*
X13300000Y-10000000I-3300000J0D01*
G01*
D11*
D12*
X8750000Y-9870000D02*
X9010000Y-10130000D01*
X9010000Y-9870000D02*
X8750000Y-10130000D01*
X10970000Y-8545000D02*
X11230000Y-8805000D01*
X11230000Y-8545000D02*
X10970000Y-8805000D01*
X10970000Y-11345000D02*
X11230000Y-11605000D01*
X11230000Y-11345000D02*
X10970000Y-11605000D01*
D11*
X6942619Y-13617524D02*
X6942619Y-13417524D01*
X6942619Y-13417524D02*
X6990238Y-13417524D01*
X6990238Y-13417524D02*
X7018809Y-13427048D01*
X7018809Y-13427048D02*
X7037857Y-13446095D01*
X7037857Y-13446095D02*
X7047381Y-13465143D01*
X7047381Y-13465143D02*
X7056905Y-13503238D01*
X7056905Y-13503238D02*
X7056905Y-13531809D01*
X7056905Y-13531809D02*
X7047381Y-13569905D01*
X7047381Y-13569905D02*
X7037857Y-13588952D01*
X7037857Y-13588952D02*
X7018809Y-13608000D01*
X7018809Y-13608000D02*
X6990238Y-13617524D01*
X6990238Y-13617524D02*
X6942619Y-13617524D01*
X7142619Y-13617524D02*
X7142619Y-13484190D01*
X7142619Y-13522286D02*
X7152143Y-13503238D01*
X7152143Y-13503238D02*
X7161667Y-13493714D01*
X7161667Y-13493714D02*
X7180714Y-13484190D01*
X7180714Y-13484190D02*
X7199762Y-13484190D01*
X7266428Y-13617524D02*
X7266428Y-13484190D01*
X7266428Y-13417524D02*
X7256905Y-13427048D01*
X7256905Y-13427048D02*
X7266428Y-13436571D01*
X7266428Y-13436571D02*
X7275952Y-13427048D01*
X7275952Y-13427048D02*
X7266428Y-13417524D01*
X7266428Y-13417524D02*
X7266428Y-13436571D01*
X7390238Y-13617524D02*
X7371190Y-13608000D01*
X7371190Y-13608000D02*
X7361667Y-13588952D01*
X7361667Y-13588952D02*
X7361667Y-13417524D01*
X7495000Y-13617524D02*
X7475952Y-13608000D01*
X7475952Y-13608000D02*
X7466428Y-13588952D01*
X7466428Y-13588952D02*
X7466428Y-13417524D01*
X7723571Y-13617524D02*
X7723571Y-13417524D01*
X7723571Y-13417524D02*
X7790238Y-13560381D01*
X7790238Y-13560381D02*
X7856905Y-13417524D01*
X7856905Y-13417524D02*
X7856905Y-13617524D01*
X8037857Y-13617524D02*
X8037857Y-13512762D01*
X8037857Y-13512762D02*
X8028333Y-13493714D01*
X8028333Y-13493714D02*
X8009286Y-13484190D01*
X8009286Y-13484190D02*
X7971190Y-13484190D01*
X7971190Y-13484190D02*
X7952143Y-13493714D01*
X8037857Y-13608000D02*
X8018809Y-13617524D01*
X8018809Y-13617524D02*
X7971190Y-13617524D01*
X7971190Y-13617524D02*
X7952143Y-13608000D01*
X7952143Y-13608000D02*
X7942619Y-13588952D01*
X7942619Y-13588952D02*
X7942619Y-13569905D01*
X7942619Y-13569905D02*
X7952143Y-13550857D01*
X7952143Y-13550857D02*
X7971190Y-13541333D01*
X7971190Y-13541333D02*
X8018809Y-13541333D01*
X8018809Y-13541333D02*
X8037857Y-13531809D01*
X8133095Y-13484190D02*
X8133095Y-13684190D01*
X8133095Y-13493714D02*
X8152143Y-13484190D01*
X8152143Y-13484190D02*
X8190238Y-13484190D01*
X8190238Y-13484190D02*
X8209286Y-13493714D01*
X8209286Y-13493714D02*
X8218809Y-13503238D01*
X8218809Y-13503238D02*
X8228333Y-13522286D01*
X8228333Y-13522286D02*
X8228333Y-13579428D01*
X8228333Y-13579428D02*
X8218809Y-13598476D01*
X8218809Y-13598476D02*
X8209286Y-13608000D01*
X8209286Y-13608000D02*
X8190238Y-13617524D01*
X8190238Y-13617524D02*
X8152143Y-13617524D01*
X8152143Y-13617524D02*
X8133095Y-13608000D01*
X8314048Y-13598476D02*
X8323571Y-13608000D01*
X8323571Y-13608000D02*
X8314048Y-13617524D01*
X8314048Y-13617524D02*
X8304524Y-13608000D01*
X8304524Y-13608000D02*
X8314048Y-13598476D01*
X8314048Y-13598476D02*
X8314048Y-13617524D01*
X8314048Y-13493714D02*
X8323571Y-13503238D01*
X8323571Y-13503238D02*
X8314048Y-13512762D01*
X8314048Y-13512762D02*
X8304524Y-13503238D01*
X8304524Y-13503238D02*
X8314048Y-13493714D01*
X8314048Y-13493714D02*
X8314048Y-13512762D01*
X6495000Y-13845000D02*
X6695000Y-14045000D01*
X6695000Y-13845000D02*
X6495000Y-14045000D01*
X6933095Y-13856571D02*
X6942619Y-13847048D01*
X6942619Y-13847048D02*
X6961667Y-13837524D01*
X6961667Y-13837524D02*
X7009286Y-13837524D01*
X7009286Y-13837524D02*
X7028333Y-13847048D01*
X7028333Y-13847048D02*
X7037857Y-13856571D01*
X7037857Y-13856571D02*
X7047381Y-13875619D01*
X7047381Y-13875619D02*
X7047381Y-13894667D01*
X7047381Y-13894667D02*
X7037857Y-13923238D01*
X7037857Y-13923238D02*
X6923571Y-14037524D01*
X6923571Y-14037524D02*
X7047381Y-14037524D01*
X7133095Y-14018476D02*
X7142619Y-14028000D01*
X7142619Y-14028000D02*
X7133095Y-14037524D01*
X7133095Y-14037524D02*
X7123571Y-14028000D01*
X7123571Y-14028000D02*
X7133095Y-14018476D01*
X7133095Y-14018476D02*
X7133095Y-14037524D01*
X7314048Y-13837524D02*
X7275952Y-13837524D01*
X7275952Y-13837524D02*
X7256905Y-13847048D01*
X7256905Y-13847048D02*
X7247381Y-13856571D01*
X7247381Y-13856571D02*
X7228333Y-13885143D01*
X7228333Y-13885143D02*
X7218809Y-13923238D01*
X7218809Y-13923238D02*
X7218809Y-13999428D01*
X7218809Y-13999428D02*
X7228333Y-14018476D01*
X7228333Y-14018476D02*
X7237857Y-14028000D01*
X7237857Y-14028000D02*
X7256905Y-14037524D01*
X7256905Y-14037524D02*
X7295000Y-14037524D01*
X7295000Y-14037524D02*
X7314048Y-14028000D01*
X7314048Y-14028000D02*
X7323571Y-14018476D01*
X7323571Y-14018476D02*
X7333095Y-13999428D01*
X7333095Y-13999428D02*
X7333095Y-13951809D01*
X7333095Y-13951809D02*
X7323571Y-13932762D01*
X7323571Y-13932762D02*
X7314048Y-13923238D01*
X7314048Y-13923238D02*
X7295000Y-13913714D01*
X7295000Y-13913714D02*
X7256905Y-13913714D01*
X7256905Y-13913714D02*
X7237857Y-13923238D01*
X7237857Y-13923238D02*
X7228333Y-13932762D01*
X7228333Y-13932762D02*
X7218809Y-13951809D01*
X7456905Y-13837524D02*
X7475952Y-13837524D01*
X7475952Y-13837524D02*
X7495000Y-13847048D01*
X7495000Y-13847048D02*
X7504524Y-13856571D01*
X7504524Y-13856571D02*
X7514048Y-13875619D01*
X7514048Y-13875619D02*
X7523571Y-13913714D01*
X7523571Y-13913714D02*
X7523571Y-13961333D01*
X7523571Y-13961333D02*
X7514048Y-13999428D01*
X7514048Y-13999428D02*
X7504524Y-14018476D01*
X7504524Y-14018476D02*
X7495000Y-14028000D01*
X7495000Y-14028000D02*
X7475952Y-14037524D01*
X7475952Y-14037524D02*
X7456905Y-14037524D01*
X7456905Y-14037524D02*
X7437857Y-14028000D01*
X7437857Y-14028000D02*
X7428333Y-14018476D01*
X7428333Y-14018476D02*
X7418809Y-13999428D01*
X7418809Y-13999428D02*
X7409286Y-13961333D01*
X7409286Y-13961333D02*
X7409286Y-13913714D01*
X7409286Y-13913714D02*
X7418809Y-13875619D01*
X7418809Y-13875619D02*
X7428333Y-13856571D01*
X7428333Y-13856571D02*
X7437857Y-13847048D01*
X7437857Y-13847048D02*
X7456905Y-13837524D01*
X7647381Y-13837524D02*
X7666429Y-13837524D01*
X7666429Y-13837524D02*
X7685476Y-13847048D01*
X7685476Y-13847048D02*
X7695000Y-13856571D01*
X7695000Y-13856571D02*
X7704524Y-13875619D01*
X7704524Y-13875619D02*
X7714048Y-13913714D01*
X7714048Y-13913714D02*
X7714048Y-13961333D01*
X7714048Y-13961333D02*
X7704524Y-13999428D01*
X7704524Y-13999428D02*
X7695000Y-14018476D01*
X7695000Y-14018476D02*
X7685476Y-14028000D01*
X7685476Y-14028000D02*
X7666429Y-14037524D01*
X7666429Y-14037524D02*
X7647381Y-14037524D01*
X7647381Y-14037524D02*
X7628333Y-14028000D01*
X7628333Y-14028000D02*
X7618809Y-14018476D01*
X7618809Y-14018476D02*
X7609286Y-13999428D01*
X7609286Y-13999428D02*
X7599762Y-13961333D01*
X7599762Y-13961333D02*
X7599762Y-13913714D01*
X7599762Y-13913714D02*
X7609286Y-13875619D01*
X7609286Y-13875619D02*
X7618809Y-13856571D01*
X7618809Y-13856571D02*
X7628333Y-13847048D01*
X7628333Y-13847048D02*
X7647381Y-13837524D01*
X7799762Y-14037524D02*
X7799762Y-13904190D01*
X7799762Y-13923238D02*
X7809286Y-13913714D01*
X7809286Y-13913714D02*
X7828333Y-13904190D01*
X7828333Y-13904190D02*
X7856905Y-13904190D01*
X7856905Y-13904190D02*
X7875952Y-13913714D01*
X7875952Y-13913714D02*
X7885476Y-13932762D01*
X7885476Y-13932762D02*
X7885476Y-14037524D01*
X7885476Y-13932762D02*
X7895000Y-13913714D01*
X7895000Y-13913714D02*
X7914048Y-13904190D01*
X7914048Y-13904190D02*
X7942619Y-13904190D01*
X7942619Y-13904190D02*
X7961667Y-13913714D01*
X7961667Y-13913714D02*
X7971190Y-13932762D01*
X7971190Y-13932762D02*
X7971190Y-14037524D01*
X8066429Y-14037524D02*
X8066429Y-13904190D01*
X8066429Y-13923238D02*
X8075952Y-13913714D01*
X8075952Y-13913714D02*
X8095000Y-13904190D01*
X8095000Y-13904190D02*
X8123571Y-13904190D01*
X8123571Y-13904190D02*
X8142619Y-13913714D01*
X8142619Y-13913714D02*
X8152143Y-13932762D01*
X8152143Y-13932762D02*
X8152143Y-14037524D01*
X8152143Y-13932762D02*
X8161667Y-13913714D01*
X8161667Y-13913714D02*
X8180714Y-13904190D01*
X8180714Y-13904190D02*
X8209286Y-13904190D01*
X8209286Y-13904190D02*
X8228333Y-13913714D01*
X8228333Y-13913714D02*
X8237857Y-13932762D01*
X8237857Y-13932762D02*
X8237857Y-14037524D01*
X8628333Y-13828000D02*
X8456905Y-14085143D01*
X8885476Y-13837524D02*
X8904524Y-13837524D01*
X8904524Y-13837524D02*
X8923572Y-13847048D01*
X8923572Y-13847048D02*
X8933095Y-13856571D01*
X8933095Y-13856571D02*
X8942619Y-13875619D01*
X8942619Y-13875619D02*
X8952143Y-13913714D01*
X8952143Y-13913714D02*
X8952143Y-13961333D01*
X8952143Y-13961333D02*
X8942619Y-13999428D01*
X8942619Y-13999428D02*
X8933095Y-14018476D01*
X8933095Y-14018476D02*
X8923572Y-14028000D01*
X8923572Y-14028000D02*
X8904524Y-14037524D01*
X8904524Y-14037524D02*
X8885476Y-14037524D01*
X8885476Y-14037524D02*
X8866429Y-14028000D01*
X8866429Y-14028000D02*
X8856905Y-14018476D01*
X8856905Y-14018476D02*
X8847381Y-13999428D01*
X8847381Y-13999428D02*
X8837857Y-13961333D01*
X8837857Y-13961333D02*
X8837857Y-13913714D01*
X8837857Y-13913714D02*
X8847381Y-13875619D01*
X8847381Y-13875619D02*
X8856905Y-13856571D01*
X8856905Y-13856571D02*
X8866429Y-13847048D01*
X8866429Y-13847048D02*
X8885476Y-13837524D01*
X9037857Y-14018476D02*
X9047381Y-14028000D01*
X9047381Y-14028000D02*
X9037857Y-14037524D01*
X9037857Y-14037524D02*
X9028334Y-14028000D01*
X9028334Y-14028000D02*
X9037857Y-14018476D01*
X9037857Y-14018476D02*
X9037857Y-14037524D01*
X9237857Y-14037524D02*
X9123572Y-14037524D01*
X9180714Y-14037524D02*
X9180714Y-13837524D01*
X9180714Y-13837524D02*
X9161667Y-13866095D01*
X9161667Y-13866095D02*
X9142619Y-13885143D01*
X9142619Y-13885143D02*
X9123572Y-13894667D01*
X9361667Y-13837524D02*
X9380715Y-13837524D01*
X9380715Y-13837524D02*
X9399762Y-13847048D01*
X9399762Y-13847048D02*
X9409286Y-13856571D01*
X9409286Y-13856571D02*
X9418810Y-13875619D01*
X9418810Y-13875619D02*
X9428334Y-13913714D01*
X9428334Y-13913714D02*
X9428334Y-13961333D01*
X9428334Y-13961333D02*
X9418810Y-13999428D01*
X9418810Y-13999428D02*
X9409286Y-14018476D01*
X9409286Y-14018476D02*
X9399762Y-14028000D01*
X9399762Y-14028000D02*
X9380715Y-14037524D01*
X9380715Y-14037524D02*
X9361667Y-14037524D01*
X9361667Y-14037524D02*
X9342619Y-14028000D01*
X9342619Y-14028000D02*
X9333095Y-14018476D01*
X9333095Y-14018476D02*
X9323572Y-13999428D01*
X9323572Y-13999428D02*
X9314048Y-13961333D01*
X9314048Y-13961333D02*
X9314048Y-13913714D01*
X9314048Y-13913714D02*
X9323572Y-13875619D01*
X9323572Y-13875619D02*
X9333095Y-13856571D01*
X9333095Y-13856571D02*
X9342619Y-13847048D01*
X9342619Y-13847048D02*
X9361667Y-13837524D01*
X9504524Y-13856571D02*
X9514048Y-13847048D01*
X9514048Y-13847048D02*
X9533095Y-13837524D01*
X9533095Y-13837524D02*
X9580715Y-13837524D01*
X9580715Y-13837524D02*
X9599762Y-13847048D01*
X9599762Y-13847048D02*
X9609286Y-13856571D01*
X9609286Y-13856571D02*
X9618810Y-13875619D01*
X9618810Y-13875619D02*
X9618810Y-13894667D01*
X9618810Y-13894667D02*
X9609286Y-13923238D01*
X9609286Y-13923238D02*
X9495000Y-14037524D01*
X9495000Y-14037524D02*
X9618810Y-14037524D01*
X9790238Y-13904190D02*
X9790238Y-14037524D01*
X9742619Y-13828000D02*
X9695000Y-13970857D01*
X9695000Y-13970857D02*
X9818810Y-13970857D01*
X9885476Y-13837524D02*
X9885476Y-13875619D01*
X9961667Y-13837524D02*
X9961667Y-13875619D01*
X10256905Y-14113714D02*
X10247381Y-14104190D01*
X10247381Y-14104190D02*
X10228334Y-14075619D01*
X10228334Y-14075619D02*
X10218810Y-14056571D01*
X10218810Y-14056571D02*
X10209286Y-14028000D01*
X10209286Y-14028000D02*
X10199762Y-13980381D01*
X10199762Y-13980381D02*
X10199762Y-13942286D01*
X10199762Y-13942286D02*
X10209286Y-13894667D01*
X10209286Y-13894667D02*
X10218810Y-13866095D01*
X10218810Y-13866095D02*
X10228334Y-13847048D01*
X10228334Y-13847048D02*
X10247381Y-13818476D01*
X10247381Y-13818476D02*
X10256905Y-13808952D01*
X10314048Y-13837524D02*
X10437857Y-13837524D01*
X10437857Y-13837524D02*
X10371191Y-13913714D01*
X10371191Y-13913714D02*
X10399762Y-13913714D01*
X10399762Y-13913714D02*
X10418810Y-13923238D01*
X10418810Y-13923238D02*
X10428334Y-13932762D01*
X10428334Y-13932762D02*
X10437857Y-13951809D01*
X10437857Y-13951809D02*
X10437857Y-13999428D01*
X10437857Y-13999428D02*
X10428334Y-14018476D01*
X10428334Y-14018476D02*
X10418810Y-14028000D01*
X10418810Y-14028000D02*
X10399762Y-14037524D01*
X10399762Y-14037524D02*
X10342619Y-14037524D01*
X10342619Y-14037524D02*
X10323572Y-14028000D01*
X10323572Y-14028000D02*
X10314048Y-14018476D01*
X10675953Y-14037524D02*
X10675953Y-13837524D01*
X10761667Y-14037524D02*
X10761667Y-13932762D01*
X10761667Y-13932762D02*
X10752143Y-13913714D01*
X10752143Y-13913714D02*
X10733096Y-13904190D01*
X10733096Y-13904190D02*
X10704524Y-13904190D01*
X10704524Y-13904190D02*
X10685477Y-13913714D01*
X10685477Y-13913714D02*
X10675953Y-13923238D01*
X10885477Y-14037524D02*
X10866429Y-14028000D01*
X10866429Y-14028000D02*
X10856905Y-14018476D01*
X10856905Y-14018476D02*
X10847381Y-13999428D01*
X10847381Y-13999428D02*
X10847381Y-13942286D01*
X10847381Y-13942286D02*
X10856905Y-13923238D01*
X10856905Y-13923238D02*
X10866429Y-13913714D01*
X10866429Y-13913714D02*
X10885477Y-13904190D01*
X10885477Y-13904190D02*
X10914048Y-13904190D01*
X10914048Y-13904190D02*
X10933096Y-13913714D01*
X10933096Y-13913714D02*
X10942619Y-13923238D01*
X10942619Y-13923238D02*
X10952143Y-13942286D01*
X10952143Y-13942286D02*
X10952143Y-13999428D01*
X10952143Y-13999428D02*
X10942619Y-14018476D01*
X10942619Y-14018476D02*
X10933096Y-14028000D01*
X10933096Y-14028000D02*
X10914048Y-14037524D01*
X10914048Y-14037524D02*
X10885477Y-14037524D01*
X11066429Y-14037524D02*
X11047381Y-14028000D01*
X11047381Y-14028000D02*
X11037858Y-14008952D01*
X11037858Y-14008952D02*
X11037858Y-13837524D01*
X11218810Y-14028000D02*
X11199762Y-14037524D01*
X11199762Y-14037524D02*
X11161667Y-14037524D01*
X11161667Y-14037524D02*
X11142619Y-14028000D01*
X11142619Y-14028000D02*
X11133096Y-14008952D01*
X11133096Y-14008952D02*
X11133096Y-13932762D01*
X11133096Y-13932762D02*
X11142619Y-13913714D01*
X11142619Y-13913714D02*
X11161667Y-13904190D01*
X11161667Y-13904190D02*
X11199762Y-13904190D01*
X11199762Y-13904190D02*
X11218810Y-13913714D01*
X11218810Y-13913714D02*
X11228334Y-13932762D01*
X11228334Y-13932762D02*
X11228334Y-13951809D01*
X11228334Y-13951809D02*
X11133096Y-13970857D01*
X11304524Y-14028000D02*
X11323572Y-14037524D01*
X11323572Y-14037524D02*
X11361667Y-14037524D01*
X11361667Y-14037524D02*
X11380715Y-14028000D01*
X11380715Y-14028000D02*
X11390238Y-14008952D01*
X11390238Y-14008952D02*
X11390238Y-13999428D01*
X11390238Y-13999428D02*
X11380715Y-13980381D01*
X11380715Y-13980381D02*
X11361667Y-13970857D01*
X11361667Y-13970857D02*
X11333096Y-13970857D01*
X11333096Y-13970857D02*
X11314048Y-13961333D01*
X11314048Y-13961333D02*
X11304524Y-13942286D01*
X11304524Y-13942286D02*
X11304524Y-13932762D01*
X11304524Y-13932762D02*
X11314048Y-13913714D01*
X11314048Y-13913714D02*
X11333096Y-13904190D01*
X11333096Y-13904190D02*
X11361667Y-13904190D01*
X11361667Y-13904190D02*
X11380715Y-13913714D01*
X11456905Y-14113714D02*
X11466429Y-14104190D01*
X11466429Y-14104190D02*
X11485477Y-14075619D01*
X11485477Y-14075619D02*
X11495000Y-14056571D01*
X11495000Y-14056571D02*
X11504524Y-14028000D01*
X11504524Y-14028000D02*
X11514048Y-13980381D01*
X11514048Y-13980381D02*
X11514048Y-13942286D01*
X11514048Y-13942286D02*
X11504524Y-13894667D01*
X11504524Y-13894667D02*
X11495000Y-13866095D01*
X11495000Y-13866095D02*
X11485477Y-13847048D01*
X11485477Y-13847048D02*
X11466429Y-13818476D01*
X11466429Y-13818476D02*
X11456905Y-13808952D01*
X11818810Y-14113714D02*
X11809286Y-14104190D01*
X11809286Y-14104190D02*
X11790238Y-14075619D01*
X11790238Y-14075619D02*
X11780715Y-14056571D01*
X11780715Y-14056571D02*
X11771191Y-14028000D01*
X11771191Y-14028000D02*
X11761667Y-13980381D01*
X11761667Y-13980381D02*
X11761667Y-13942286D01*
X11761667Y-13942286D02*
X11771191Y-13894667D01*
X11771191Y-13894667D02*
X11780715Y-13866095D01*
X11780715Y-13866095D02*
X11790238Y-13847048D01*
X11790238Y-13847048D02*
X11809286Y-13818476D01*
X11809286Y-13818476D02*
X11818810Y-13808952D01*
X11895000Y-13904190D02*
X11895000Y-14037524D01*
X11895000Y-13923238D02*
X11904524Y-13913714D01*
X11904524Y-13913714D02*
X11923572Y-13904190D01*
X11923572Y-13904190D02*
X11952143Y-13904190D01*
X11952143Y-13904190D02*
X11971191Y-13913714D01*
X11971191Y-13913714D02*
X11980715Y-13932762D01*
X11980715Y-13932762D02*
X11980715Y-14037524D01*
X12104524Y-14037524D02*
X12085477Y-14028000D01*
X12085477Y-14028000D02*
X12075953Y-14018476D01*
X12075953Y-14018476D02*
X12066429Y-13999428D01*
X12066429Y-13999428D02*
X12066429Y-13942286D01*
X12066429Y-13942286D02*
X12075953Y-13923238D01*
X12075953Y-13923238D02*
X12085477Y-13913714D01*
X12085477Y-13913714D02*
X12104524Y-13904190D01*
X12104524Y-13904190D02*
X12133096Y-13904190D01*
X12133096Y-13904190D02*
X12152143Y-13913714D01*
X12152143Y-13913714D02*
X12161667Y-13923238D01*
X12161667Y-13923238D02*
X12171191Y-13942286D01*
X12171191Y-13942286D02*
X12171191Y-13999428D01*
X12171191Y-13999428D02*
X12161667Y-14018476D01*
X12161667Y-14018476D02*
X12152143Y-14028000D01*
X12152143Y-14028000D02*
X12133096Y-14037524D01*
X12133096Y-14037524D02*
X12104524Y-14037524D01*
X12228334Y-13904190D02*
X12304524Y-13904190D01*
X12256905Y-13837524D02*
X12256905Y-14008952D01*
X12256905Y-14008952D02*
X12266429Y-14028000D01*
X12266429Y-14028000D02*
X12285477Y-14037524D01*
X12285477Y-14037524D02*
X12304524Y-14037524D01*
X12523572Y-13904190D02*
X12523572Y-14104190D01*
X12523572Y-13913714D02*
X12542619Y-13904190D01*
X12542619Y-13904190D02*
X12580715Y-13904190D01*
X12580715Y-13904190D02*
X12599762Y-13913714D01*
X12599762Y-13913714D02*
X12609286Y-13923238D01*
X12609286Y-13923238D02*
X12618810Y-13942286D01*
X12618810Y-13942286D02*
X12618810Y-13999428D01*
X12618810Y-13999428D02*
X12609286Y-14018476D01*
X12609286Y-14018476D02*
X12599762Y-14028000D01*
X12599762Y-14028000D02*
X12580715Y-14037524D01*
X12580715Y-14037524D02*
X12542619Y-14037524D01*
X12542619Y-14037524D02*
X12523572Y-14028000D01*
X12733096Y-14037524D02*
X12714048Y-14028000D01*
X12714048Y-14028000D02*
X12704524Y-14008952D01*
X12704524Y-14008952D02*
X12704524Y-13837524D01*
X12895000Y-14037524D02*
X12895000Y-13932762D01*
X12895000Y-13932762D02*
X12885477Y-13913714D01*
X12885477Y-13913714D02*
X12866429Y-13904190D01*
X12866429Y-13904190D02*
X12828334Y-13904190D01*
X12828334Y-13904190D02*
X12809286Y-13913714D01*
X12895000Y-14028000D02*
X12875953Y-14037524D01*
X12875953Y-14037524D02*
X12828334Y-14037524D01*
X12828334Y-14037524D02*
X12809286Y-14028000D01*
X12809286Y-14028000D02*
X12799762Y-14008952D01*
X12799762Y-14008952D02*
X12799762Y-13989905D01*
X12799762Y-13989905D02*
X12809286Y-13970857D01*
X12809286Y-13970857D02*
X12828334Y-13961333D01*
X12828334Y-13961333D02*
X12875953Y-13961333D01*
X12875953Y-13961333D02*
X12895000Y-13951809D01*
X12961667Y-13904190D02*
X13037858Y-13904190D01*
X12990239Y-13837524D02*
X12990239Y-14008952D01*
X12990239Y-14008952D02*
X12999762Y-14028000D01*
X12999762Y-14028000D02*
X13018810Y-14037524D01*
X13018810Y-14037524D02*
X13037858Y-14037524D01*
X13180715Y-14028000D02*
X13161667Y-14037524D01*
X13161667Y-14037524D02*
X13123572Y-14037524D01*
X13123572Y-14037524D02*
X13104524Y-14028000D01*
X13104524Y-14028000D02*
X13095000Y-14008952D01*
X13095000Y-14008952D02*
X13095000Y-13932762D01*
X13095000Y-13932762D02*
X13104524Y-13913714D01*
X13104524Y-13913714D02*
X13123572Y-13904190D01*
X13123572Y-13904190D02*
X13161667Y-13904190D01*
X13161667Y-13904190D02*
X13180715Y-13913714D01*
X13180715Y-13913714D02*
X13190239Y-13932762D01*
X13190239Y-13932762D02*
X13190239Y-13951809D01*
X13190239Y-13951809D02*
X13095000Y-13970857D01*
X13361667Y-14037524D02*
X13361667Y-13837524D01*
X13361667Y-14028000D02*
X13342620Y-14037524D01*
X13342620Y-14037524D02*
X13304524Y-14037524D01*
X13304524Y-14037524D02*
X13285477Y-14028000D01*
X13285477Y-14028000D02*
X13275953Y-14018476D01*
X13275953Y-14018476D02*
X13266429Y-13999428D01*
X13266429Y-13999428D02*
X13266429Y-13942286D01*
X13266429Y-13942286D02*
X13275953Y-13923238D01*
X13275953Y-13923238D02*
X13285477Y-13913714D01*
X13285477Y-13913714D02*
X13304524Y-13904190D01*
X13304524Y-13904190D02*
X13342620Y-13904190D01*
X13342620Y-13904190D02*
X13361667Y-13913714D01*
X13437858Y-14113714D02*
X13447381Y-14104190D01*
X13447381Y-14104190D02*
X13466429Y-14075619D01*
X13466429Y-14075619D02*
X13475953Y-14056571D01*
X13475953Y-14056571D02*
X13485477Y-14028000D01*
X13485477Y-14028000D02*
X13495000Y-13980381D01*
X13495000Y-13980381D02*
X13495000Y-13942286D01*
X13495000Y-13942286D02*
X13485477Y-13894667D01*
X13485477Y-13894667D02*
X13475953Y-13866095D01*
X13475953Y-13866095D02*
X13466429Y-13847048D01*
X13466429Y-13847048D02*
X13447381Y-13818476D01*
X13447381Y-13818476D02*
X13437858Y-13808952D01*
M02*
