%TF.GenerationSoftware,KiCad,Pcbnew,7.0.1*%
%TF.CreationDate,2023-05-06T14:01:27-04:00*%
%TF.ProjectId,digital_compass,64696769-7461-46c5-9f63-6f6d70617373,rev?*%
%TF.SameCoordinates,Original*%
%TF.FileFunction,Legend,Bot*%
%TF.FilePolarity,Positive*%
%FSLAX46Y46*%
G04 Gerber Fmt 4.6, Leading zero omitted, Abs format (unit mm)*
G04 Created by KiCad (PCBNEW 7.0.1) date 2023-05-06 14:01:27*
%MOMM*%
%LPD*%
G01*
G04 APERTURE LIST*
%ADD10C,0.150000*%
%ADD11C,0.120000*%
%ADD12C,1.700000*%
%ADD13C,2.600000*%
%ADD14R,3.000000X3.000000*%
%ADD15C,3.000000*%
G04 APERTURE END LIST*
D10*
%TO.C,BT1*%
X117618809Y-99194285D02*
X117666428Y-99337142D01*
X117666428Y-99337142D02*
X117714047Y-99384761D01*
X117714047Y-99384761D02*
X117809285Y-99432380D01*
X117809285Y-99432380D02*
X117952142Y-99432380D01*
X117952142Y-99432380D02*
X118047380Y-99384761D01*
X118047380Y-99384761D02*
X118095000Y-99337142D01*
X118095000Y-99337142D02*
X118142619Y-99241904D01*
X118142619Y-99241904D02*
X118142619Y-98860952D01*
X118142619Y-98860952D02*
X117142619Y-98860952D01*
X117142619Y-98860952D02*
X117142619Y-99194285D01*
X117142619Y-99194285D02*
X117190238Y-99289523D01*
X117190238Y-99289523D02*
X117237857Y-99337142D01*
X117237857Y-99337142D02*
X117333095Y-99384761D01*
X117333095Y-99384761D02*
X117428333Y-99384761D01*
X117428333Y-99384761D02*
X117523571Y-99337142D01*
X117523571Y-99337142D02*
X117571190Y-99289523D01*
X117571190Y-99289523D02*
X117618809Y-99194285D01*
X117618809Y-99194285D02*
X117618809Y-98860952D01*
X117142619Y-99718095D02*
X117142619Y-100289523D01*
X118142619Y-100003809D02*
X117142619Y-100003809D01*
X118142619Y-101146666D02*
X118142619Y-100575238D01*
X118142619Y-100860952D02*
X117142619Y-100860952D01*
X117142619Y-100860952D02*
X117285476Y-100765714D01*
X117285476Y-100765714D02*
X117380714Y-100670476D01*
X117380714Y-100670476D02*
X117428333Y-100575238D01*
D11*
X84800000Y-127250000D02*
X115000000Y-127250000D01*
X115000000Y-127250000D02*
X115000000Y-72750000D01*
X84800000Y-72750000D02*
X84800000Y-127250000D01*
X115000000Y-72750000D02*
X84800000Y-72750000D01*
%TD*%
%LPC*%
D12*
%TO.C,U4*%
X105500000Y-123000000D03*
X105500000Y-120500000D03*
X105500000Y-118000000D03*
X105500000Y-115500000D03*
X105500000Y-113000000D03*
%TD*%
%TO.C,U3*%
X87300000Y-90800000D03*
X89800000Y-90800000D03*
X92300000Y-90800000D03*
X94800000Y-90800000D03*
X97300000Y-90800000D03*
X99800000Y-90800000D03*
X99800000Y-80900000D03*
X97300000Y-80900000D03*
X94800000Y-80900000D03*
X92300000Y-80900000D03*
X89800000Y-80900000D03*
X87300000Y-80900000D03*
%TD*%
%TO.C,U5*%
X88000000Y-129100000D03*
X104500000Y-131200000D03*
X96000000Y-68700000D03*
X81000000Y-74800000D03*
X119500000Y-124800000D03*
X129500000Y-111200000D03*
%TD*%
D13*
%TO.C,BT1*%
X111000000Y-114750000D03*
X88800000Y-100000000D03*
X111000000Y-86750000D03*
D14*
X93550000Y-75850000D03*
D15*
X106250000Y-75850000D03*
%TD*%
M02*
