M48
; DRILL file {KiCad 7.0.1} date Mon 24 Apr 2023 09:39:18 AM EDT
; FORMAT={-:-/ absolute / metric / decimal}
; #@! TF.CreationDate,2023-04-24T09:39:18-04:00
; #@! TF.GenerationSoftware,Kicad,Pcbnew,7.0.1
; #@! TF.FileFunction,Plated,1,2,PTH
FMAT,2
METRIC
; #@! TA.AperFunction,Plated,PTH,ViaDrill
T1C0.400
; #@! TA.AperFunction,Plated,PTH,ComponentDrill
T2C1.000
; #@! TA.AperFunction,Plated,PTH,ComponentDrill
T3C2.400
%
G90
G05
T1
X81.0Y-115.3
X81.4Y-113.5
X83.4Y-104.5
X84.2Y-91.4
X85.2Y-93.8
X86.6Y-103.7
X88.2Y-93.4
X90.1Y-93.3
X90.6Y-113.1
X92.3Y-84.4
X93.7Y-84.4
X96.7Y-77.3
X97.3Y-93.3
X100.5Y-113.8
X103.5Y-88.5
X107.9Y-113.0
X108.9Y-88.4
X115.9Y-110.975
X118.6Y-111.7
X123.1Y-111.7
T2
X81.0Y-74.8
X87.3Y-80.9
X87.3Y-90.8
X88.0Y-129.1
X89.8Y-80.9
X89.8Y-90.8
X92.3Y-80.9
X92.3Y-90.8
X94.8Y-80.9
X94.8Y-90.8
X96.0Y-68.7
X97.3Y-80.9
X97.3Y-90.8
X99.8Y-80.9
X99.8Y-90.8
X104.5Y-131.2
X105.5Y-113.0
X105.5Y-115.5
X105.5Y-118.0
X105.5Y-120.5
X105.5Y-123.0
X119.5Y-124.8
X129.5Y-111.2
T3
X93.55Y-75.85
X106.25Y-75.85
T0
M30
